{
  "accessors": [
    {
      "bufferView": 2,
      "componentType": 5126,
      "count": 65532,
      "max": [
        56.49367141723633,
        56.36268997192383,
        6.087258338928223
      ],
      "min": [
        -56.38845443725586,
        -56.40580368041992,
        -4.341684325481765e-05
      ],
      "type": "VEC3"
    },
    {
      "bufferView": 2,
      "byteOffset": 786384,
      "componentType": 5126,
      "count": 65532,
      "max": [
        0.9999229311943054,
        0.9999308586120605,
        1.0
      ],
      "min": [
        -1.0,
        -0.9998945593833923,
        -0.9657812714576721
      ],
      "type": "VEC3"
    },
    {
      "bufferView": 3,
      "componentType": 5126,
      "count": 65532,
      "max": [
        1.0,
        0.9996180534362793,
        0.9998929500579834,
        1.0
      ],
      "min": [
        -0.9996054172515869,
        -0.9994974732398987,
        -0.9999250769615173,
        -1.0
      ],
      "type": "VEC4"
    },
    {
      "bufferView": 1,
      "componentType": 5126,
      "count": 65532,
      "max": [
        1.1765480041503906,
        1.1776471138000488
      ],
      "min": [
        -0.17673900723457336,
        -0.17879252135753632
      ],
      "type": "VEC2"
    },
    {
      "bufferView": 1,
      "byteOffset": 524256,
      "componentType": 5126,
      "count": 65532,
      "max": [
        1.1765480041503906,
        1.1776471138000488
      ],
      "min": [
        -0.17673900723457336,
        -0.17879252135753632
      ],
      "type": "VEC2"
    },
    {
      "bufferView": 1,
      "byteOffset": 1048512,
      "componentType": 5126,
      "count": 65532,
      "max": [
        1.1765480041503906,
        1.1776471138000488
      ],
      "min": [
        -0.17673900723457336,
        -0.17879252135753632
      ],
      "type": "VEC2"
    },
    {
      "bufferView": 0,
      "componentType": 5125,
      "count": 339312,
      "type": "SCALAR"
    },
    {
      "bufferView": 2,
      "byteOffset": 1572768,
      "componentType": 5126,
      "count": 32411,
      "max": [
        56.461822509765625,
        56.33912658691406,
        6.087258338928223
      ],
      "min": [
        -56.259132385253906,
        -56.271629333496094,
        -4.2638777813408524e-05
      ],
      "type": "VEC3"
    },
    {
      "bufferView": 2,
      "byteOffset": 1961700,
      "componentType": 5126,
      "count": 32411,
      "max": [
        1.0,
        1.0,
        1.0
      ],
      "min": [
        -1.0,
        -1.0,
        -1.0
      ],
      "type": "VEC3"
    },
    {
      "bufferView": 3,
      "byteOffset": 1048512,
      "componentType": 5126,
      "count": 32411,
      "max": [
        1.0,
        0.9993351697921753,
        0.9998929500579834,
        1.0
      ],
      "min": [
        -0.9994927644729614,
        -0.9994568228721619,
        -0.9990947842597961,
        -1.0
      ],
      "type": "VEC4"
    },
    {
      "bufferView": 1,
      "byteOffset": 1572768,
      "componentType": 5126,
      "count": 32411,
      "max": [
        1.1726717948913574,
        1.1777153015136719
      ],
      "min": [
        -0.17660383880138397,
        -0.17868873476982117
      ],
      "type": "VEC2"
    },
    {
      "bufferView": 1,
      "byteOffset": 1832056,
      "componentType": 5126,
      "count": 32411,
      "max": [
        1.1726717948913574,
        1.1777153015136719
      ],
      "min": [
        -0.17660383880138397,
        -0.17868873476982117
      ],
      "type": "VEC2"
    },
    {
      "bufferView": 1,
      "byteOffset": 2091344,
      "componentType": 5126,
      "count": 32411,
      "max": [
        1.1726717948913574,
        1.1777153015136719
      ],
      "min": [
        -0.17660383880138397,
        -0.17868873476982117
      ],
      "type": "VEC2"
    },
    {
      "bufferView": 0,
      "byteOffset": 1357248,
      "componentType": 5125,
      "count": 107871,
      "type": "SCALAR"
    }
  ],
  "asset": {
    "extras": {
      "author": "Beccasaurus (https://sketchfab.com/beccastabler)",
      "license": "CC-BY-4.0 (http://creativecommons.org/licenses/by/4.0/)",
      "source": "https://sketchfab.com/3d-models/grass-and-weeds-344af319c15d42da9e33d16bb534d95f",
      "title": "Grass and weeds"
    },
    "generator": "Sketchfab-12.67.0",
    "version": "2.0"
  },
  "bufferViews": [
    {
      "buffer": 0,
      "byteLength": 1788732,
      "name": "floatBufferViews",
      "target": 34963
    },
    {
      "buffer": 0,
      "byteLength": 2350632,
      "byteOffset": 1788732,
      "byteStride": 8,
      "name": "floatBufferViews",
      "target": 34962
    },
    {
      "buffer": 0,
      "byteLength": 2350632,
      "byteOffset": 4139364,
      "byteStride": 12,
      "name": "floatBufferViews",
      "target": 34962
    },
    {
      "buffer": 0,
      "byteLength": 1567088,
      "byteOffset": 6489996,
      "byteStride": 16,
      "name": "floatBufferViews",
      "target": 34962
    }
  ],
  "buffers": [
    {
      "byteLength": 8057084,
      "uri": "scene.bin"
    }
  ],
  "images": [
    {
      "uri": "textures/01_-_Default_baseColor.png"
    },
    {
      "uri": "textures/01_-_Default_metallicRoughness.png"
    },
    {
      "uri": "textures/01_-_Default_normal.png"
    }
  ],
  "materials": [
    {
      "doubleSided": true,
      "name": "01_-_Default",
      "normalTexture": {
        "index": 2
      },
      "occlusionTexture": {
        "index": 1,
        "strength": 0.6341463414634146
      },
      "pbrMetallicRoughness": {
        "baseColorTexture": {
          "index": 0
        },
        "metallicFactor": 0.0,
        "metallicRoughnessTexture": {
          "index": 1
        }
      }
    }
  ],
  "meshes": [
    {
      "name": "Cylinder001_01 - Default_0",
      "primitives": [
        {
          "attributes": {
            "NORMAL": 1,
            "POSITION": 0,
            "TANGENT": 2,
            "TEXCOORD_0": 3,
            "TEXCOORD_1": 4,
            "TEXCOORD_2": 5
          },
          "indices": 6,
          "material": 0,
          "mode": 4
        }
      ]
    },
    {
      "name": "Cylinder001_01 - Default_0",
      "primitives": [
        {
          "attributes": {
            "NORMAL": 8,
            "POSITION": 7,
            "TANGENT": 9,
            "TEXCOORD_0": 10,
            "TEXCOORD_1": 11,
            "TEXCOORD_2": 12
          },
          "indices": 13,
          "material": 0,
          "mode": 4
        }
      ]
    }
  ],
  "nodes": [
    {
      "children": [
        1
      ],
      "matrix": [
        1.0,
        0.0,
        0.0,
        0.0,
        0.0,
        2.220446049250313e-16,
        -1.0,
        0.0,
        0.0,
        1.0,
        2.220446049250313e-16,
        0.0,
        0.0,
        0.0,
        0.0,
        1.0
      ],
      "name": "Sketchfab_model"
    },
    {
      "children": [
        2
      ],
      "matrix": [
        1.0,
        0.0,
        0.0,
        0.0,
        0.0,
        0.0,
        1.0,
        0.0,
        0.0,
        -1.0,
        0.0,
        0.0,
        0.0,
        0.0,
        0.0,
        1.0
      ],
      "name": "821f0511820649d9b3e82bdc01bf8a25.fbx"
    },
    {
      "children": [
        3
      ],
      "name": "RootNode"
    },
    {
      "children": [
        4,
        5
      ],
      "matrix": [
        1.0,
        0.0,
        0.0,
        0.0,
        0.0,
        2.220446049250313e-16,
        -1.0,
        0.0,
        0.0,
        1.0,
        2.220446049250313e-16,
        0.0,
        0.0479583740234375,
        0.0,
        0.2380218505859375,
        1.0
      ],
      "name": "Cylinder001"
    },
    {
      "mesh": 0,
      "name": "Cylinder001_01 - Default_0"
    },
    {
      "mesh": 1,
      "name": "Cylinder001_01 - Default_0"
    }
  ],
  "samplers": [
    {
      "magFilter": 9729,
      "minFilter": 9987,
      "wrapS": 10497,
      "wrapT": 10497
    }
  ],
  "scene": 0,
  "scenes": [
    {
      "name": "Sketchfab_Scene",
      "nodes": [
        0
      ]
    }
  ],
  "textures": [
    {
      "sampler": 0,
      "source": 0
    },
    {
      "sampler": 0,
      "source": 1
    },
    {
      "sampler": 0,
      "source": 2
    }
  ]
}
